<svg xmlns="http://www.w3.org/2000/svg" xmlns:xlink="http://www.w3.org/1999/xlink" width="124" zoomAndPan="magnify" viewBox="0 0 93 11.25" height="15" preserveAspectRatio="xMidYMid meet" version="1.0"><defs><clipPath id="e8d66646e3"><path d="M 2.90625 0 L 13.453125 0 L 13.453125 10.546875 L 2.90625 10.546875 Z M 2.90625 0 " clip-rule="nonzero"/></clipPath><clipPath id="aa3ced6fd7"><path d="M 8.179688 0 L 9.425781 4.027344 L 13.453125 4.027344 L 10.195312 6.519531 L 11.4375 10.546875 L 8.179688 8.058594 L 4.921875 10.546875 L 6.164062 6.519531 L 2.90625 4.027344 L 6.933594 4.027344 Z M 8.179688 0 " clip-rule="nonzero"/></clipPath><clipPath id="452651e7bd"><path d="M 18.125 0 L 28.671875 0 L 28.671875 10.546875 L 18.125 10.546875 Z M 18.125 0 " clip-rule="nonzero"/></clipPath><clipPath id="b4eb74f344"><path d="M 23.398438 0 L 24.644531 4.027344 L 28.671875 4.027344 L 25.414062 6.519531 L 26.65625 10.546875 L 23.398438 8.058594 L 20.140625 10.546875 L 21.382812 6.519531 L 18.125 4.027344 L 22.152344 4.027344 Z M 23.398438 0 " clip-rule="nonzero"/></clipPath><clipPath id="9449c52803"><path d="M 33.34375 0 L 43.890625 0 L 43.890625 10.546875 L 33.34375 10.546875 Z M 33.34375 0 " clip-rule="nonzero"/></clipPath><clipPath id="654a2f7e26"><path d="M 38.617188 0 L 39.863281 4.027344 L 43.890625 4.027344 L 40.632812 6.519531 L 41.878906 10.546875 L 38.617188 8.058594 L 35.359375 10.546875 L 36.605469 6.519531 L 33.34375 4.027344 L 37.375 4.027344 Z M 38.617188 0 " clip-rule="nonzero"/></clipPath><clipPath id="e68498734f"><path d="M 48.5625 0 L 59.109375 0 L 59.109375 10.546875 L 48.5625 10.546875 Z M 48.5625 0 " clip-rule="nonzero"/></clipPath><clipPath id="0aba8062a8"><path d="M 53.835938 0 L 55.082031 4.027344 L 59.109375 4.027344 L 55.851562 6.519531 L 57.097656 10.546875 L 53.835938 8.058594 L 50.578125 10.546875 L 51.824219 6.519531 L 48.5625 4.027344 L 52.59375 4.027344 Z M 53.835938 0 " clip-rule="nonzero"/></clipPath><clipPath id="f1553d15e7"><path d="M 63.785156 0 L 74.332031 0 L 74.332031 10.546875 L 63.785156 10.546875 Z M 63.785156 0 " clip-rule="nonzero"/></clipPath><clipPath id="cc4f57d7bf"><path d="M 69.058594 0 L 70.300781 4.027344 L 74.332031 4.027344 L 71.070312 6.519531 L 72.316406 10.546875 L 69.058594 8.058594 L 65.796875 10.546875 L 67.042969 6.519531 L 63.785156 4.027344 L 67.8125 4.027344 Z M 69.058594 0 " clip-rule="nonzero"/></clipPath><clipPath id="be9ae70aca"><path d="M 79.003906 0 L 89.550781 0 L 89.550781 10.546875 L 79.003906 10.546875 Z M 79.003906 0 " clip-rule="nonzero"/></clipPath><clipPath id="b3e3c7c00f"><path d="M 84.277344 0 L 85.519531 4.027344 L 89.550781 4.027344 L 86.289062 6.519531 L 87.535156 10.546875 L 84.277344 8.058594 L 81.015625 10.546875 L 82.261719 6.519531 L 79.003906 4.027344 L 83.03125 4.027344 Z M 84.277344 0 " clip-rule="nonzero"/></clipPath></defs><g clip-path="url(#e8d66646e3)"><g clip-path="url(#aa3ced6fd7)"><path fill="#ffde59" d="M 2.90625 0 L 13.453125 0 L 13.453125 10.546875 L 2.90625 10.546875 Z M 2.90625 0 " fill-opacity="1" fill-rule="nonzero"/></g></g><g clip-path="url(#452651e7bd)"><g clip-path="url(#b4eb74f344)"><path fill="#ffde59" d="M 18.125 0 L 28.671875 0 L 28.671875 10.546875 L 18.125 10.546875 Z M 18.125 0 " fill-opacity="1" fill-rule="nonzero"/></g></g><g clip-path="url(#9449c52803)"><g clip-path="url(#654a2f7e26)"><path fill="#ffde59" d="M 33.34375 0 L 43.890625 0 L 43.890625 10.546875 L 33.34375 10.546875 Z M 33.34375 0 " fill-opacity="1" fill-rule="nonzero"/></g></g><g clip-path="url(#e68498734f)"><g clip-path="url(#0aba8062a8)"><path fill="#ffde59" d="M 48.5625 0 L 59.109375 0 L 59.109375 10.546875 L 48.5625 10.546875 Z M 48.5625 0 " fill-opacity="1" fill-rule="nonzero"/></g></g><g clip-path="url(#f1553d15e7)"><g clip-path="url(#cc4f57d7bf)"><path fill="#ffde59" d="M 63.785156 0 L 74.332031 0 L 74.332031 10.546875 L 63.785156 10.546875 Z M 63.785156 0 " fill-opacity="1" fill-rule="nonzero"/></g></g><g clip-path="url(#be9ae70aca)"><g clip-path="url(#b3e3c7c00f)"><path fill="#ffde59" d="M 79.003906 0 L 89.550781 0 L 89.550781 10.546875 L 79.003906 10.546875 Z M 79.003906 0 " fill-opacity="1" fill-rule="nonzero"/></g></g></svg>